<?xml version="1.0" encoding="UTF-8" standalone="no"?>
<svg
    xmlns:dc="http://purl.org/dc/elements/1.1/"
    xmlns:cc="http://creativecommons.org/ns#"
    xmlns:rdf="http://www.w3.org/1999/02/22-rdf-syntax-ns#"
    xmlns:xlink="http://www.w3.org/1999/xlink"
    xmlns="http://www.w3.org/2000/svg"
    id="svg866"
    version="1.1"
    viewBox="0 0 24 24"
    height="24"
    width="24">
    <metadata
        id="metadata872">
        <rdf:RDF>
            <cc:Work
                rdf:about="">
                <dc:format>image/svg+xml</dc:format>
                <dc:type
                    rdf:resource="http://purl.org/dc/dcmitype/StillImage"/>
                <dc:title></dc:title>
            </cc:Work>
        </rdf:RDF>
    </metadata>
    <defs
        id="defs870">
        <linearGradient
            id="linearGradient919">
            <stop
                id="stop915"
                offset="0"
                style="stop-color:#fafafa;stop-opacity:1;"/>
            <stop
                id="stop917"
                offset="1"
                style="stop-color:#4db6ac;stop-opacity:1"/>
        </linearGradient>
        <linearGradient
            gradientUnits="userSpaceOnUse"
            y2="3.0194664"
            x2="22"
            y1="18.782986"
            x1="3.2840662"
            id="linearGradient921"
            xlink:href="#linearGradient919"/>
    </defs>
    <path
        id="path862"
        fill="none"
        d="M0 0h24v24H0z"/>
    <path
        id="path864"
        style="fill:url(#linearGradient921);fill-opacity:1"
        d="M13 3c-4.97 0-9 4.03-9 9H1l3.89 3.89.07.14L9 12H6c0-3.87 3.13-7 7-7s7 3.13 7 7-3.13 7-7 7c-1.93 0-3.68-.79-4.94-2.06l-1.42 1.42C8.27 19.99 10.51 21 13 21c4.97 0 9-4.03 9-9s-4.03-9-9-9zm-1 5v5l4.28 2.54.72-1.21-3.5-2.08V8H12z"/>
</svg>
